<svg xmlns="http://www.w3.org/2000/svg" xmlns:xlink="http://www.w3.org/1999/xlink" viewBox="0 0 409.1 353.8"><style>.st1{fill:#abc123}</style><switch><g><defs><path id="SVGID_1_" d="M0 0h409.1v353.8H0z"/></defs><clipPath id="SVGID_2_"><use xlink:href="#SVGID_1_" overflow="visible"/></clipPath><g clip-path="url(#SVGID_2_)"><path class="st1" d="M414.2-51.2c1.6 2.7 3.1 5.4 4.7 8.2v-30.3c-2.9 5-5.8 10.1-8.7 15.1 1.3 2.4 2.7 4.7 4 7zM-5.1 407.3l-1.2-2.1v18.1c1.7-3 3.5-6 5.2-9.1-1.3-2.3-2.6-4.6-4-6.9zM-6.3 178.9v8.2c1.6-2.7 3.1-5.4 4.7-8.2h-4.7zM101.8 474.2H34.6c-1.3 2.3-2.7 4.7-4 7-9.7 16.8-19.3 33.5-29 50.3H68.6c.2.1.3.2.4.4.1.2.2.3.3.5h66.1c-1.3-2.3-2.7-4.6-4-7-9.9-17.1-19.8-34.1-29.6-51.2zM-5.1 525.4l-1.2-2.1v8.2h4.7c-1.1-2-2.3-4.1-3.5-6.1zM417.7 177.1h1.2v-14.2c-2.7 4.7-5.5 9.5-8.2 14.2h7z"/><path class="st1" d="M3.5 524.5c9.9-17.2 19.9-34.4 29.8-51.6.1-.2.3-.4.6-.4h67.9c1.3-2.3 2.7-4.7 4-7 9.8-17.1 19.7-34.1 29.5-51.2-1.3-2.3-2.7-4.6-4-7-9.7-16.8-19.4-33.5-29-50.3-1.2 2-2.3 4.1-3.5 6.1-9.9 17.2-19.9 34.4-29.8 51.6 0 .1-.1.1-.1.2-.1.1-.2.1-.2.2H.6c-1.3 2.3-2.7 4.7-4 7-.9 1.6-1.8 3.2-2.8 4.8v92.8c2.1 3.6 4.2 7.2 6.3 10.9 1.1-2.1 2.2-4.1 3.4-6.1zM307.4-118.1h67.2c1.3-2.3 2.7-4.7 4-7 9.7-16.8 19.3-33.5 29-50.3h-66.8c-.1 0-.1-.1-.2-.1h-.1c-.1-.1-.2-.1-.2-.2-.1-.2-.2-.3-.3-.5h-66.1c1.3 2.3 2.7 4.6 4 7 9.8 16.9 19.6 34 29.5 51.1zM102.8-118.1H170c1.3-2.3 2.7-4.7 4-7 9.7-16.8 19.3-33.5 29-50.3h-66.8c-.1 0-.1-.1-.2-.1h-.1c-.1-.1-.2-.1-.2-.3-.1-.2-.2-.3-.3-.5H69.2c1.3 2.3 2.7 4.6 4 7 9.9 17 19.8 34.1 29.6 51.2zM3.5-66.1c9.8-17.1 19.7-34.1 29.5-51.2-1.3-2.3-2.7-4.6-4-7-9.6-16.7-19.3-33.4-29-50.2-1.2 2-2.3 4.1-3.5 6.1-.9 1.6-1.8 3.2-2.8 4.8v104.5h5.7c1.4-2.3 2.8-4.6 4.1-7zM-6.3-175.4v8.2c1.6-2.7 3.1-5.4 4.7-8.2h-4.7zM414.2-169.3c1.6 2.7 3.1 5.4 4.7 8.2v-14.2h-8.2c1.2 1.9 2.3 4 3.5 6zM-5.1 171.1l-1.2-2.1v8.2h4.7c-1.1-2.1-2.3-4.1-3.5-6.1zM414.2 185c1.6 2.7 3.1 5.4 4.7 8.2V179h-8.2c1.2 2 2.3 4 3.5 6zM-5.1 53l-1.2-2.1V69c1.7-3 3.5-6 5.2-9.1-1.3-2.3-2.6-4.6-4-6.9zM306.3 474.2h-67.2c-1.3 2.3-2.7 4.7-4 7-9.7 16.8-19.3 33.5-29 50.3H273.1c.2.1.3.2.4.4.1.2.2.3.3.5h66.1c-1.3-2.3-2.7-4.6-4-7-9.9-17.1-19.7-34.1-29.6-51.2zM414.2 303.1c1.6 2.7 3.1 5.4 4.7 8.2V281c-2.9 5-5.8 10.1-8.7 15.1 1.3 2.4 2.7 4.7 4 7zM405.6 422.2c-9.8 17.1-19.7 34.1-29.5 51.2 1.3 2.3 2.7 4.6 4 7 9.7 16.8 19.4 33.5 29 50.3 1.2-2 2.3-4.1 3.5-6.1 2.1-3.6 4.2-7.2 6.3-10.9v-98.5h-9.3c-1.3 2.3-2.6 4.6-4 7zM417.7 531.5h1.2v-14.2c-2.7 4.7-5.5 9.5-8.2 14.2h7z"/><path d="M417.7 531.5h-7c2.7-4.7 5.5-9.5 8.2-14.2v-3.6c-2.1 3.6-4.2 7.2-6.3 10.9-1.2 2-2.3 4.1-3.5 6.1-9.7-16.8-19.4-33.5-29-50.3-1.3-2.3-2.7-4.6-4-7 9.8-17.1 19.7-34.1 29.5-51.2 1.3-2.3 2.7-4.7 4-7h9.3v-1.8H409.6c-9.8-17.1-19.7-34.1-29.5-51.2-1.4-2.5-2.9-5-4.3-7.4-.1-.2-.2-.3-.4-.4h-67c9.7-16.8 19.3-33.5 29-50.3 1.3-2.3 2.7-4.7 4-7h67.2c3.4 5.9 6.9 11.9 10.3 17.8v-3.6c-1.6-2.7-3.1-5.4-4.7-8.2-1.3-2.3-2.7-4.6-4-7 2.9-5 5.8-10.1 8.7-15.1v-3.6c-2.1 3.6-4.2 7.2-6.3 10.9-1.3 2.3-2.7 4.7-4 7h-68s-.1 0-.1.1c-.1 0-.1 0-.2.1l-.2.2v.1c-9.9 17.2-19.9 34.4-29.8 51.6-1.2 2-2.3 4.1-3.5 6.1-9.7-16.8-19.4-33.5-29-50.3-1.3-2.3-2.7-4.6-4-7 9.8-17.1 19.7-34.1 29.5-51.2 1.3-2.3 2.7-4.7 4-7h68.1c.1 0 .2-.1.2-.2s.1-.1.1-.2c9.9-17.2 19.9-34.4 29.8-51.6 1.2-2 2.3-4.1 3.5-6.1 3.3 5.6 6.5 11.3 9.8 16.9v-3.6c-1.6-2.7-3.1-5.4-4.7-8.2-1.2-2-2.3-4-3.5-6.1h8.2v-1.8h-8.2c2.7-4.7 5.5-9.5 8.2-14.2v-3.6c-2.1 3.6-4.2 7.2-6.3 10.9-1.2 2-2.3 4.1-3.5 6.1-9.7-16.8-19.4-33.5-29-50.3-1.3-2.3-2.7-4.6-4-7 9.8-17.1 19.7-34.1 29.5-51.2 1.3-2.3 2.7-4.7 4-7h9.3V59H409.5c-9.7-17-19.5-34.1-29.4-51.1-1.4-2.5-2.9-5-4.3-7.4-.1-.2-.2-.3-.4-.4h-67c9.7-16.8 19.3-33.5 29-50.3 1.3-2.3 2.7-4.7 4-7h67.2c3.4 5.9 6.9 11.9 10.3 17.8V-43c-1.6-2.7-3.1-5.4-4.7-8.2-1.3-2.3-2.7-4.6-4-7 2.9-5 5.8-10.1 8.7-15.1v-3.6c-2.1 3.6-4.2 7.2-6.3 10.9-1.3 2.3-2.7 4.7-4 7h-68s-.1 0-.1.1c-.1 0-.1 0-.2.1-.1 0-.1.1-.2.2 0 0-.1 0-.1.1-9.9 17.2-19.9 34.4-29.8 51.6-1.2 2-2.3 4.1-3.5 6.1-9.7-16.8-19.4-33.5-29-50.3-1.3-2.3-2.7-4.6-4-7 9.8-17.1 19.7-34.1 29.5-51.2 1.3-2.3 2.7-4.7 4-7h68.1c.1 0 .2-.1.2-.2.1-.1.1-.1.1-.2 9.9-17.2 19.9-34.4 29.8-51.6 1.2-2 2.3-4.1 3.5-6.1 3.3 5.6 6.5 11.3 9.8 16.9v-3.6c-1.6-2.7-3.1-5.4-4.7-8.2-1.2-2-2.3-4-3.5-6.1h8.2v-.9H339.9c.1.2.2.3.3.5.1.1.1.2.2.2h.1c.1 0 .1.1.2.1H407.5c-9.7 16.8-19.3 33.5-29 50.3-1.3 2.3-2.7 4.7-4 7h-67.2c-9.8-17.1-19.7-34.1-29.5-51.2-1.3-2.3-2.7-4.6-4-7H135.6c.1.2.2.3.3.5.1.1.1.2.2.3h.1c.1 0 .1.1.2.1H203.2c-9.7 16.8-19.3 33.5-29 50.3-1.3 2.3-2.7 4.7-4 7H103c-9.8-17.1-19.7-34.1-29.5-51.2-1.3-2.3-2.7-4.6-4-7H-6.2v.9h4.7c-1.6 2.7-3.1 5.4-4.7 8.2v3.6c.9-1.6 1.8-3.2 2.8-4.8 1.2-2 2.3-4.1 3.5-6.1 9.7 16.8 19.4 33.5 29 50.3 1.3 2.3 2.7 4.6 4 7-9.8 17.1-19.7 34.1-29.5 51.2-1.3 2.3-2.7 4.7-4 7h-5.7v1.8h5.7C9.3-40.2 19.2-23.2 29-6.1c1.4 2.5 2.9 5 4.3 7.4.1.1.1.2.2.2h.1c.1 0 .1.1.2.1h66.9c-9.7 16.8-19.3 33.5-29 50.3-1.3 2.3-2.7 4.7-4 7-19.7.1-39.4.1-59.1.1H.5c-2.3-3.9-4.5-7.8-6.8-11.8v3.6l1.2 2.1c1.3 2.3 2.7 4.6 4 7-1.7 3-3.5 6-5.2 9.1v3.6c.9-1.6 1.8-3.2 2.8-4.8 1.3-2.3 2.7-4.7 4-7h68.1c.1 0 .2-.1.2-.2s.1-.1.1-.2C78.9 43.2 88.8 26 98.8 8.8c1.2-2 2.3-4.1 3.5-6.1 9.7 16.8 19.4 33.5 29 50.3 1.3 2.3 2.7 4.6 4 7-9.8 17.1-19.7 34.1-29.5 51.2-1.3 2.3-2.7 4.7-4 7H33.9c-.2 0-.4.2-.5.4-9.9 17.2-19.9 34.4-29.8 51.6-1.2 2-2.3 4.1-3.5 6.1-2.1-3.6-4.2-7.2-6.3-10.9v3.6l1.2 2.1c1.2 2 2.3 4 3.5 6.1h-4.7v1.8h4.7c-1.6 2.7-3.1 5.4-4.7 8.2v3.6c.9-1.6 1.8-3.2 2.8-4.8 1.2-2 2.3-4.1 3.5-6.1 9.7 16.8 19.4 33.5 29 50.3 1.3 2.3 2.7 4.6 4 7-9.8 17.1-19.7 34.1-29.5 51.2-1.3 2.3-2.7 4.7-4 7h-5.7v1.8h5.7c9.8 17.1 19.7 34.1 29.5 51.2 1.4 2.5 2.9 5 4.3 7.4.1.1.1.2.2.2h.1c.1 0 .1.1.2.1h66.9c-9.7 16.8-19.3 33.5-29 50.3-1.3 2.3-2.7 4.7-4 7H.6c-2.3-3.9-4.5-7.8-6.8-11.8v3.6l1.2 2.1c1.3 2.3 2.7 4.6 4 7-1.7 3-3.5 6-5.2 9.1v3.6c.9-1.6 1.8-3.2 2.8-4.8 1.3-2.3 2.7-4.7 4-7h68.1c.1 0 .2-.1.2-.2.1-.1.1-.1.1-.2 9.9-17.2 19.9-34.4 29.8-51.6 1.2-2 2.3-4.1 3.5-6.1 9.7 16.8 19.4 33.5 29 50.3 1.3 2.3 2.7 4.6 4 7-9.8 17.1-19.7 34.1-29.5 51.2-1.3 2.3-2.7 4.7-4 7H33.9c-.2 0-.4.2-.6.4-9.9 17.2-19.9 34.4-29.8 51.6-1.2 2-2.3 4.1-3.5 6.1-2.1-3.6-4.2-7.2-6.3-10.9v3.6l1.2 2.1c1.2 2 2.3 4 3.5 6.1h-4.7v.9h75.4c-.1-.2-.2-.3-.3-.5-.1-.2-.2-.3-.4-.4h-67c9.7-16.8 19.3-33.5 29-50.3 1.3-2.3 2.7-4.7 4-7h67.2c9.8 17.1 19.7 34.1 29.5 51.2 1.3 2.3 2.7 4.6 4 7h138.4c-.1-.2-.2-.3-.3-.5-.1-.2-.2-.3-.4-.4h-67c9.7-16.8 19.3-33.5 29-50.3 1.3-2.3 2.7-4.7 4-7H306c9.8 17.1 19.7 34.1 29.5 51.2 1.3 2.3 2.7 4.6 4 7H418.5v-.9c0-.1-.4-.1-.8-.1zM276.3 288.3c-1.4 2.5-2.9 5-4.3 7.4-.1.2-.1.3-.1.4 0 .1 0 .3.1.5 9.9 17.2 19.9 34.4 29.8 51.6 1.2 2 2.3 4 3.5 6.1h-66.1c-9.8-17.1-19.7-34.1-29.5-51.2-1.3-2.3-2.7-4.6-4-7 9.8-17.1 19.7-34.1 29.5-51.2 1.4-2.5 2.9-5 4.3-7.4.1-.2.1-.3.1-.4 0-.1 0-.3-.1-.5-9.9-17.2-19.9-34.4-29.8-51.6-1.2-2-2.3-4-3.5-6.1h66.1c9.8 17.1 19.7 34.1 29.5 51.2 1.3 2.3 2.7 4.6 4 7-9.8 17.1-19.7 34.1-29.5 51.2zm102.3-59.1c-1.3 2.3-2.7 4.7-4 7h-67.2c-9.8-17.1-19.7-34.1-29.5-51.2-1.4-2.5-2.9-5-4.3-7.4-.1-.2-.2-.3-.4-.4h-67c9.7-16.8 19.3-33.5 29-50.3 1.3-2.3 2.7-4.7 4-7h67.2c9.8 17.1 19.7 34.1 29.5 51.2 1.4 2.5 2.9 5 4.3 7.4.1.1.1.2.2.3h.1c.1 0 .1.1.2.1H407.5c-9.6 16.8-19.3 33.6-28.9 50.3zM366.5 1.8h8.1c9.8 17.1 19.7 34.1 29.5 51.2 1.3 2.3 2.7 4.6 4 7-9.8 17.1-19.7 34.1-29.5 51.2-1.4 2.5-2.9 5-4.3 7.4-.1.2-.1.3-.1.4 0 .1 0 .3.1.5 9.9 17.2 19.9 34.4 29.8 51.6 1.2 2 2.3 4 3.5 6.1h-66.1c-9.8-17.1-19.7-34.1-29.5-51.2-1.3-2.3-2.7-4.6-4-7 9.8-17.1 19.7-34.1 29.5-51.2 1.4-2.5 2.9-5 4.3-7.4.1-.2.1-.3.1-.4 0-.1 0-.3-.1-.5-9.9-17.2-19.9-34.4-29.8-51.6-1.2-2-2.3-4-3.5-6.1h58zM335.9 53c1.3 2.3 2.7 4.6 4 7-9.8 17.1-19.7 34.1-29.5 51.2-1.3 2.3-2.7 4.7-4 7h-68-.1s-.1 0-.1.1h-.1c-.1.1-.2.1-.2.2-9.9 17.2-19.9 34.4-29.8 51.6-1.2 2-2.3 4.1-3.5 6.1-9.7-16.8-19.4-33.5-29-50.3-1.3-2.3-2.7-4.6-4-7 9.8-17.1 19.7-34.1 29.5-51.2 1.3-2.3 2.7-4.7 4-7h68.1c.1 0 .2-.1.2-.2s.1-.1.1-.2c9.9-17.2 19.9-34.4 29.8-51.6 1.2-2 2.3-4.1 3.5-6.1L335.9 53zm-71.7-228.4h8.1c9.8 17.1 19.7 34.1 29.5 51.2 1.3 2.3 2.7 4.6 4 7-9.8 17.1-19.7 34.1-29.5 51.2-1.4 2.5-2.9 5-4.3 7.4-.1.2-.1.3-.1.4 0 .1 0 .3.1.5 9.9 17.2 19.9 34.4 29.8 51.6 1.2 2 2.3 4 3.5 6.1h-66.1c-9.8-17.1-19.7-34.1-29.5-51.2-1.3-2.3-2.7-4.6-4-7 9.8-17.1 19.7-34.1 29.5-51.2 1.4-2.5 2.9-5 4.3-7.4.1-.2.1-.3.1-.4 0-.1 0-.3-.1-.5-9.9-17.2-19.9-34.4-29.8-51.6-1.2-2-2.3-4-3.5-6.1h58zM42.7 0h-8.1C24.8-17.1 14.9-34.1 5.1-51.2c-1.3-2.3-2.7-4.6-4-7 9.8-17.1 19.7-34.1 29.5-51.2 1.4-2.5 2.9-5 4.3-7.4.1-.2.1-.3.1-.5 0-.1 0-.3-.1-.4C25-134.9 15-152.1 5.1-169.3c-1.2-2-2.3-4-3.5-6.1h66.1c9.8 17.1 19.7 34.1 29.5 51.2 1.3 2.3 2.7 4.6 4 7-9.8 17.1-19.7 34.1-29.5 51.2-1.4 2.5-2.9 5-4.3 7.4-.1.2-.1.3-.1.4 0 .1 0 .3.1.5 9.9 17.2 19.9 34.4 29.8 51.6 1.2 2 2.3 4 3.5 6.1h-58zm59.6-.9c-9.7-16.8-19.4-33.5-29-50.3-1.3-2.3-2.7-4.6-4-7 9.8-17.1 19.7-34.1 29.5-51.2 1.3-2.3 2.7-4.7 4-7h68.1c.1 0 .2-.1.2-.2.1-.1.1-.1.1-.2 9.9-17.2 19.9-34.4 29.8-51.6 1.2-2 2.3-4.1 3.5-6.1 9.7 16.8 19.4 33.5 29 50.3 1.3 2.3 2.7 4.6 4 7-9.8 17.1-19.7 34.1-29.5 51.2-1.3 2.3-2.7 4.7-4 7h-68s-.1 0-.1.1c-.1 0-.1 0-.2.1l-.2.2-.1.1c-9.9 17.2-19.9 34.4-29.8 51.6-1 1.9-2.1 3.9-3.3 6zm30.6-49.4c1.3-2.3 2.7-4.7 4-7h67.2c9.8 17.1 19.7 34.1 29.5 51.2 1.4 2.5 2.9 5 4.3 7.4.1.2.3.3.4.4h67c-9.7 16.8-19.3 33.5-29 50.3-1.3 2.3-2.7 4.7-4 7h-67.2c-9.8-17.1-19.7-34.1-29.5-51.2-1.4-2.5-2.9-5-4.3-7.4-.1-.2-.2-.3-.4-.4h-67c9.6-16.8 19.3-33.5 29-50.3zm0 118.1c1.4-2.5 2.9-5 4.3-7.4.1-.2.1-.3.1-.5 0-.1 0-.3-.1-.4-9.9-17.2-19.9-34.4-29.8-51.6-1.2-2-2.3-4-3.5-6.1H170c9.8 17.1 19.7 34.1 29.5 51.2 1.3 2.3 2.7 4.6 4 7-9.8 17-19.7 34-29.5 51.1-1.4 2.5-2.9 5-4.3 7.4-.1.2-.1.3-.1.4 0 .1 0 .3.1.5 9.9 17.2 19.9 34.4 29.8 51.6 1.2 2 2.3 4 3.5 6.1h-66.1c-9.8-17.1-19.7-34.1-29.5-51.2-1.3-2.3-2.7-4.6-4-7 9.8-17 19.6-34 29.5-51.1zM30.6 126.9c1.3-2.3 2.7-4.7 4-7h67.2c9.8 17.1 19.7 34.1 29.5 51.2 1.4 2.5 2.9 5 4.3 7.4.1.1.1.2.2.3h.1c.1 0 .1.1.2.1H202.9c-9.7 16.8-19.3 33.5-29 50.3-1.3 2.3-2.7 4.7-4 7h-67.2C93 219.1 83.1 202.1 73.3 185c-1.4-2.5-2.9-5-4.3-7.4-.1-.2-.2-.3-.4-.4h-67c9.6-16.8 19.3-33.6 29-50.3zm12.1 227.4h-8.1c-9.8-17.1-19.7-34.1-29.5-51.2-1.3-2.3-2.7-4.6-4-7 9.8-17.1 19.7-34.1 29.5-51.2 1.4-2.5 2.9-5 4.3-7.4.1-.2.1-.3.1-.5 0-.1 0-.3-.1-.4-10-17.2-19.9-34.4-29.8-51.6-1.2-2-2.3-4-3.5-6.1h66.1c9.8 17.1 19.7 34.1 29.5 51.2 1.3 2.3 2.7 4.6 4 7-9.8 17.1-19.7 34.1-29.5 51.2-1.4 2.5-2.9 5-4.3 7.4-.1.2-.1.3-.1.4 0 .1 0 .3.1.5 9.9 17.2 19.9 34.4 29.8 51.6 1.2 2 2.3 4 3.5 6.1h-58zm59.6-.9c-9.7-16.8-19.4-33.5-29-50.3-1.3-2.3-2.7-4.6-4-7C79.1 279 89 262 98.8 244.9c1.3-2.3 2.7-4.7 4-7h68.1c.1 0 .2-.1.2-.2.1-.1.1-.1.1-.2 9.9-17.2 19.9-34.4 29.8-51.6 1.2-2 2.3-4.1 3.5-6.1 9.7 16.8 19.4 33.5 29 50.3 1.3 2.3 2.7 4.6 4 7-9.8 17.1-19.7 34.1-29.5 51.2-1.3 2.3-2.7 4.7-4 7h-68s-.1 0-.1.1c-.1 0-.1 0-.2.1l-.2.2c-9.9 17.2-19.9 34.4-29.8 51.6-1.1 2.1-2.2 4.1-3.4 6.1zm30.6-49.4c1.3-2.3 2.7-4.7 4-7h67.2c9.8 17.1 19.7 34.1 29.5 51.2 1.4 2.5 2.9 5 4.3 7.4.1.2.3.3.4.4h67c-9.7 16.8-19.3 33.5-29 50.3-1.3 2.3-2.7 4.7-4 7h-67.2c-9.8-17.1-19.7-34.1-29.5-51.2-1.4-2.5-2.9-5-4.3-7.4-.1-.2-.2-.3-.4-.4h-67c9.6-16.7 19.3-33.5 29-50.3zM145 531.5h-8.1c-9.8-17.1-19.7-34.1-29.5-51.2-1.3-2.3-2.7-4.6-4-7 9.8-17.1 19.7-34.1 29.5-51.2 1.4-2.5 2.9-5 4.3-7.4.1-.2.1-.3.1-.5 0-.1 0-.3-.1-.4-9.9-17.2-19.9-34.4-29.8-51.6-1.2-2-2.3-4-3.5-6.1H170c9.8 17.1 19.7 34.1 29.5 51.2 1.3 2.3 2.7 4.6 4 7-9.8 17.1-19.7 34.1-29.5 51.2-1.4 2.5-2.9 5-4.3 7.4-.1.2-.1.3-.1.4 0 .1 0 .3.1.5 9.9 17.2 19.9 34.4 29.8 51.6 1.2 2 2.3 4 3.5 6.1h-58zm161.3-59.1h-67.9-.1s-.1 0-.1.1l-.3.3c-9.9 17.2-19.9 34.4-29.8 51.6-1.2 2-2.3 4.1-3.5 6.1-9.7-16.8-19.4-33.5-29-50.3-1.3-2.3-2.7-4.6-4-7 9.8-17.1 19.7-34.1 29.5-51.2 1.3-2.3 2.7-4.7 4-7h68.1c.1 0 .2-.1.2-.2.1-.1.1-.1.1-.2 9.9-17.2 19.9-34.4 29.8-51.6 1.2-2 2.3-4.1 3.5-6.1 9.7 16.8 19.4 33.5 29 50.3 1.3 2.3 2.7 4.6 4 7-9.8 17.1-19.7 34.1-29.5 51.2-1.3 2.4-2.6 4.7-4 7zm43.2 59.1h-8.1c-9.8-17.1-19.7-34.1-29.5-51.2-1.3-2.3-2.7-4.6-4-7 9.8-17.1 19.7-34.1 29.5-51.2 1.4-2.5 2.9-5 4.3-7.4.1-.2.1-.3.1-.4 0-.1 0-.3-.1-.5-9.9-17.2-19.9-34.4-29.8-51.6-1.2-2-2.3-4-3.5-6.1h66.1c9.8 17.1 19.7 34.1 29.5 51.2 1.3 2.3 2.7 4.6 4 7-9.8 17.1-19.7 34.1-29.5 51.2-1.4 2.5-2.9 5-4.3 7.4-.1.2-.1.3-.1.4 0 .1 0 .3.1.5 9.9 17.2 19.9 34.4 29.8 51.6 1.2 2 2.3 4 3.5 6.1h-58z" fill="#abc123"/></g></g></switch></svg>